<svg width="8" height="8" xmlns="http://www.w3.org/2000/svg"><path d="M7.425 1.319a.15.15 0 0 1 .005.175l-.033.035-.749.573.082.066c.34.28.695.627 1.062 1.055a.904.904 0 0 1 0 1.154C6.145 6.3 4.712 6.587 4 6.587c-.803 0-1.558-.332-2.203-.767l-.876.67a.15.15 0 0 1-.215-.204l.033-.035 6.476-4.96a.15.15 0 0 1 .21.028Zm-1.03.975-1.071.823.007.015c.09.206.139.436.139.678 0 .884-.666 1.608-1.479 1.608-.409 0-.78-.183-1.049-.477l-.893.685.057.038c.57.36 1.217.62 1.894.62.535 0 1.953-.21 3.578-2.116a.563.563 0 0 0 0-.728 7.992 7.992 0 0 0-1.183-1.146ZM4 1.014c.482 0 1.292.13 2.275.809l-.26.2c-.876-.576-1.582-.688-1.954-.699H4c-.535 0-1.953.209-3.578 2.108a.574.574 0 0 0 0 .736c.296.346.726.794 1.243 1.188l-.246.189a8.714 8.714 0 0 1-1.21-1.168.904.904 0 0 1 0-1.154C1.854 1.3 3.286 1.013 4 1.013Zm1.118 2.262L3.15 4.783c.22.225.517.364.841.364.676 0 1.23-.602 1.23-1.337 0-.19-.037-.37-.103-.534ZM3.99 2.201c.434 0 .825.206 1.096.532l-.204.159a1.183 1.183 0 0 0-.892-.42c-.676 0-1.23.602-1.23 1.338 0 .217.049.422.134.603l-.205.158a1.706 1.706 0 0 1-.178-.761c0-.885.666-1.609 1.48-1.609Z" fill="#646464" fill-rule="nonzero"/></svg>